<?xml version="1.0" standalone="no"?>
<!DOCTYPE svg PUBLIC "-//W3C//DTD SVG 20010904//EN"
 "http://www.w3.org/TR/2001/REC-SVG-20010904/DTD/svg10.dtd">
<svg version="1.0" xmlns="http://www.w3.org/2000/svg"
 width="16.000000pt" height="16.000000pt" viewBox="0 0 16.000000 16.000000"
 preserveAspectRatio="xMidYMid meet">

<g transform="translate(0.000000,16.000000) scale(0.100000,-0.100000)"
fill="#000000" stroke="none">
<path d="M16 144 c-21 -21 -21 -107 0 -128 21 -21 107 -21 128 0 21 21 21 107
0 128 -21 21 -107 21 -128 0z m118 -10 c21 -20 21 -88 0 -108 -20 -21 -88 -21
-108 0 -18 18 -21 76 -6 105 14 24 91 27 114 3z"/>
<path d="M62 94 c-11 -12 -10 -17 2 -30 15 -14 17 -14 32 0 14 14 14 18 0 31
-18 18 -18 18 -34 -1z"/>
</g>
</svg>
